<svg id="Layer_2" data-name="Layer 2" xmlns="http://www.w3.org/2000/svg" viewBox="0 0 1080 1080"><defs><style>.cls-1{fill:#fdc301;}</style></defs><rect class="cls-1" width="1080" height="1080"/><path d="M317.49,662.3h-1.28l-33.35,0c-28.52,0-58-.11-87-.11a21,21,0,0,1-19.3-29.35l.19-.42,42.82-92.59-64.23,21.85,37.12-101.94a64,64,0,0,1,60-42H320.6A64,64,0,0,1,360.88,432l.51.41a63.86,63.86,0,0,1,6.72,92.74l-7.35,8a94.19,94.19,0,0,1,17.27,45,99,99,0,0,1-9.26,54.69c-5.94,12-15.15,21.06-25.93,25.52C333.8,662.11,324.86,662.3,317.49,662.3Zm-98.5-36c21.45,0,43,.06,63.94.1l33.34.05c4.87,0,9.9,0,12.88-1.21,2.67-1.11,5.48-4.21,7.5-8.3,10.55-21.31,7.28-49.21-7.78-66.34l-16-18.26,28.9-31.45a28,28,0,0,0-3-40.69l-.51-.42a28.1,28.1,0,0,0-17.67-6.28H252.42A28.1,28.1,0,0,0,226.1,472l-11.54,31.68,72.6-24.7Z"/><path d="M536.83,560.84a35.42,35.42,0,0,1,7.64,22.38q0,18.16-12.69,28.78T496.4,622.63H428.93V477.8h65.2q22.06,0,34.55,10.11t12.49,27.44q0,12.79-6.71,21.25a34.59,34.59,0,0,1-17.85,11.75A33.77,33.77,0,0,1,536.83,560.84Zm-72.62-24.45h23.11q8.67,0,13.31-3.82t4.64-11.24q0-7.43-4.64-11.35t-13.31-3.92H464.21Zm39.72,53.74q4.85-4,4.84-11.65t-5-12q-5.06-4.34-13.93-4.33H464.21v32h26Q499.08,594.16,503.93,590.13Z"/><path d="M594,470V622.63H558.7V470Z"/><path d="M616,490.07a17.71,17.71,0,0,1-5.88-13.51A18,18,0,0,1,616,462.84q5.88-5.46,15.17-5.47,9.07,0,15,5.47A18,18,0,0,1,652,476.56a17.71,17.71,0,0,1-5.88,13.51q-5.88,5.48-15,5.47Q621.83,495.54,616,490.07Zm32.7,17.44V622.63H613.37V507.51Z"/><path d="M732.21,592.71v29.92h-18q-19.18,0-29.92-9.39T673.62,582.6V536.8h-14V507.51h14V479.45h35.27v28.06H732V536.8H708.89V583q0,5.16,2.48,7.42c1.65,1.52,4.4,2.27,8.25,2.27Z"/><path d="M778.63,593.54h49.92v29.09H739.22V594.57l47.86-58H739.63V507.51h87.89v28Z"/><path d="M874.76,593.54h49.93v29.09H835.36V594.57l47.86-58H835.77V507.51h87.89v28Z"/></svg>